<?xml version="1.0" encoding="UTF-8" standalone="no"?>
<!DOCTYPE svg PUBLIC "-//W3C//DTD SVG 1.1//EN"
 "http://www.w3.org/Graphics/SVG/1.1/DTD/svg11.dtd">
<!-- Generated by graphviz version 2.42.4 (0)
 -->
<!-- Title: architecture Pages: 1 -->
<svg width="690pt" height="292pt"
 viewBox="0.00 0.00 690.00 292.00" xmlns="http://www.w3.org/2000/svg" xmlns:xlink="http://www.w3.org/1999/xlink">
<g id="graph0" class="graph" transform="scale(1 1) rotate(0) translate(18 274)">
<title>architecture</title>
<!-- keypad -->
<g id="node1" class="node">
<title>keypad</title>
<path fill="none" stroke="black" d="M122,-256C122,-256 12,-256 12,-256 6,-256 0,-250 0,-244 0,-244 0,-228 0,-228 0,-222 6,-216 12,-216 12,-216 122,-216 122,-216 128,-216 134,-222 134,-228 134,-228 134,-244 134,-244 134,-250 128,-256 122,-256"/>
<text text-anchor="middle" x="67" y="-239.4" font-family="Helvetica,sans-Serif" font-size="12.00">4x4 Keypad</text>
<text text-anchor="middle" x="67" y="-226.4" font-family="Helvetica,sans-Serif" font-size="12.00">PE0&#45;PE3 / PC4&#45;PC7</text>
</g>
<!-- mcu -->
<g id="node4" class="node">
<title>mcu</title>
<path fill="none" stroke="black" stroke-width="1.5" d="M374,-154C374,-154 262,-154 262,-154 256,-154 250,-148 250,-142 250,-142 250,-114 250,-114 250,-108 256,-102 262,-102 262,-102 374,-102 374,-102 380,-102 386,-108 386,-114 386,-114 386,-142 386,-142 386,-148 380,-154 374,-154"/>
<text text-anchor="middle" x="318" y="-131.4" font-family="Helvetica,sans-Serif" font-size="12.00">TM4C123GH6PM</text>
<text text-anchor="middle" x="318" y="-118.4" font-family="Helvetica,sans-Serif" font-size="12.00">Lock Controller</text>
</g>
<!-- keypad&#45;&gt;mcu -->
<g id="edge1" class="edge">
<title>keypad&#45;&gt;mcu</title>
<path fill="none" stroke="black" d="M114.25,-215.94C152.35,-199.41 206.9,-175.75 249.82,-157.14"/>
<polygon fill="black" stroke="black" points="251.04,-159.47 256.88,-154.08 248.95,-154.65 251.04,-159.47"/>
<text text-anchor="middle" x="192" y="-194" font-family="Helvetica,sans-Serif" font-size="10.00">key scan</text>
</g>
<!-- pot -->
<g id="node2" class="node">
<title>pot</title>
<path fill="none" stroke="black" d="M116,-184C116,-184 18,-184 18,-184 12,-184 6,-178 6,-172 6,-172 6,-156 6,-156 6,-150 12,-144 18,-144 18,-144 116,-144 116,-144 122,-144 128,-150 128,-156 128,-156 128,-172 128,-172 128,-178 122,-184 116,-184"/>
<text text-anchor="middle" x="67" y="-167.4" font-family="Helvetica,sans-Serif" font-size="12.00">Potentiometer</text>
<text text-anchor="middle" x="67" y="-154.4" font-family="Helvetica,sans-Serif" font-size="12.00">PE4 / ADC0 AIN9</text>
</g>
<!-- pot&#45;&gt;mcu -->
<g id="edge2" class="edge">
<title>pot&#45;&gt;mcu</title>
<path fill="none" stroke="black" d="M128.28,-155.29C162.54,-150.33 205.74,-144.09 242.16,-138.82"/>
<polygon fill="black" stroke="black" points="242.78,-141.38 249.83,-137.71 242.03,-136.19 242.78,-141.38"/>
<text text-anchor="middle" x="192" y="-152" font-family="Helvetica,sans-Serif" font-size="10.00">12&#45;bit ADC</text>
</g>
<!-- ir -->
<g id="node3" class="node">
<title>ir</title>
<path fill="none" stroke="black" d="M122,-112C122,-112 12,-112 12,-112 6,-112 0,-106 0,-100 0,-100 0,-84 0,-84 0,-78 6,-72 12,-72 12,-72 122,-72 122,-72 128,-72 134,-78 134,-84 134,-84 134,-100 134,-100 134,-106 128,-112 122,-112"/>
<text text-anchor="middle" x="67" y="-95.4" font-family="Helvetica,sans-Serif" font-size="12.00">IR Sensor</text>
<text text-anchor="middle" x="67" y="-82.4" font-family="Helvetica,sans-Serif" font-size="12.00">PF0 GPIO Interrupt</text>
</g>
<!-- ir&#45;&gt;mcu -->
<g id="edge3" class="edge">
<title>ir&#45;&gt;mcu</title>
<path fill="none" stroke="black" d="M134.07,-101.55C167.29,-106.36 207.69,-112.2 242.06,-117.17"/>
<polygon fill="black" stroke="black" points="241.95,-119.8 249.75,-118.28 242.7,-114.61 241.95,-119.8"/>
<text text-anchor="middle" x="192" y="-116" font-family="Helvetica,sans-Serif" font-size="10.00">falling edge</text>
</g>
<!-- servo -->
<g id="node5" class="node">
<title>servo</title>
<path fill="none" stroke="black" d="M617,-220C617,-220 548,-220 548,-220 542,-220 536,-214 536,-208 536,-208 536,-192 536,-192 536,-186 542,-180 548,-180 548,-180 617,-180 617,-180 623,-180 629,-186 629,-192 629,-192 629,-208 629,-208 629,-214 623,-220 617,-220"/>
<text text-anchor="middle" x="582.5" y="-203.4" font-family="Helvetica,sans-Serif" font-size="12.00">Servo Lock</text>
<text text-anchor="middle" x="582.5" y="-190.4" font-family="Helvetica,sans-Serif" font-size="12.00">PF1 / PWM1</text>
</g>
<!-- mcu&#45;&gt;servo -->
<g id="edge5" class="edge">
<title>mcu&#45;&gt;servo</title>
<path fill="none" stroke="black" d="M386.26,-146.45C430.45,-158.57 487.45,-174.2 528.44,-185.45"/>
<polygon fill="black" stroke="black" points="527.97,-188.04 535.9,-187.49 529.36,-182.98 527.97,-188.04"/>
<text text-anchor="middle" x="448.5" y="-175" font-family="Helvetica,sans-Serif" font-size="10.00">PWM</text>
</g>
<!-- leds -->
<g id="node6" class="node">
<title>leds</title>
<path fill="none" stroke="black" d="M617,-148C617,-148 548,-148 548,-148 542,-148 536,-142 536,-136 536,-136 536,-120 536,-120 536,-114 542,-108 548,-108 548,-108 617,-108 617,-108 623,-108 629,-114 629,-120 629,-120 629,-136 629,-136 629,-142 623,-148 617,-148"/>
<text text-anchor="middle" x="582.5" y="-131.4" font-family="Helvetica,sans-Serif" font-size="12.00">Status LEDs</text>
<text text-anchor="middle" x="582.5" y="-118.4" font-family="Helvetica,sans-Serif" font-size="12.00">PF2 / PF3</text>
</g>
<!-- mcu&#45;&gt;leds -->
<g id="edge6" class="edge">
<title>mcu&#45;&gt;leds</title>
<path fill="none" stroke="black" d="M386.26,-128C430.36,-128 487.21,-128 528.18,-128"/>
<polygon fill="black" stroke="black" points="528.4,-130.63 535.9,-128 528.4,-125.38 528.4,-130.63"/>
<text text-anchor="middle" x="448.5" y="-131" font-family="Helvetica,sans-Serif" font-size="10.00">GPIO</text>
</g>
<!-- uart -->
<g id="node7" class="node">
<title>uart</title>
<path fill="none" stroke="black" d="M642,-76C642,-76 523,-76 523,-76 517,-76 511,-70 511,-64 511,-64 511,-48 511,-48 511,-42 517,-36 523,-36 523,-36 642,-36 642,-36 648,-36 654,-42 654,-48 654,-48 654,-64 654,-64 654,-70 648,-76 642,-76"/>
<text text-anchor="middle" x="582.5" y="-59.4" font-family="Helvetica,sans-Serif" font-size="12.00">UART Console</text>
<text text-anchor="middle" x="582.5" y="-46.4" font-family="Helvetica,sans-Serif" font-size="12.00">PA0 / PA1 @ 115200</text>
</g>
<!-- mcu&#45;&gt;uart -->
<g id="edge7" class="edge">
<title>mcu&#45;&gt;uart</title>
<path fill="none" stroke="black" d="M386.26,-109.55C422,-99.75 466.13,-87.64 503.39,-77.42"/>
<polygon fill="black" stroke="black" points="504.21,-79.92 510.74,-75.41 502.82,-74.86 504.21,-79.92"/>
<text text-anchor="middle" x="448.5" y="-103" font-family="Helvetica,sans-Serif" font-size="10.00">status / alerts</text>
</g>
<!-- watchdog -->
<g id="node8" class="node">
<title>watchdog</title>
<path fill="none" stroke="black" stroke-dasharray="5,2" d="M108,-40C108,-40 26,-40 26,-40 20,-40 14,-34 14,-28 14,-28 14,-12 14,-12 14,-6 20,0 26,0 26,0 108,0 108,0 114,0 120,-6 120,-12 120,-12 120,-28 120,-28 120,-34 114,-40 108,-40"/>
<text text-anchor="middle" x="67" y="-23.4" font-family="Helvetica,sans-Serif" font-size="12.00">Watchdog0</text>
<text text-anchor="middle" x="67" y="-10.4" font-family="Helvetica,sans-Serif" font-size="12.00">Input Timeout</text>
</g>
<!-- watchdog&#45;&gt;mcu -->
<g id="edge4" class="edge">
<title>watchdog&#45;&gt;mcu</title>
<path fill="none" stroke="black" d="M114.25,-40.06C152.35,-56.59 206.9,-80.25 249.82,-98.86"/>
<polygon fill="black" stroke="black" points="248.95,-101.35 256.88,-101.92 251.04,-96.53 248.95,-101.35"/>
<text text-anchor="middle" x="192" y="-86" font-family="Helvetica,sans-Serif" font-size="10.00">timeout</text>
</g>
</g>
</svg>
